<svg width="118" height="128" viewBox="0 0 118 128" fill="none" xmlns="http://www.w3.org/2000/svg">
<path fill-rule="evenodd" clip-rule="evenodd" d="M104.94 22.6728C112.819 27.223 117.679 35.637 117.679 44.7375V83.2576C117.679 92.363 112.819 100.772 104.94 105.322L71.5731 124.587C63.6935 129.138 53.9802 129.138 46.1006 124.587L12.7338 105.322C4.85424 100.772 0 92.363 0 83.2576V44.7375C0 35.637 4.85424 27.223 12.7338 22.6728L46.1006 3.41268C53.9802 -1.13756 63.6935 -1.13756 71.5731 3.41268L104.94 22.6728ZM50.5675 12.1552L18.0735 30.9152C12.9545 33.8718 9.80655 39.3292 9.80655 45.2425V82.7575C9.80655 88.6659 12.9545 94.1282 18.0735 97.0849L50.5675 115.84C55.6865 118.797 61.9872 118.797 67.1062 115.84L99.6002 97.0849C104.719 94.1282 107.872 88.6659 107.872 82.7575V45.2425C107.872 39.3292 104.719 33.8718 99.6002 30.9152L67.1062 12.1552C61.9872 9.19855 55.6865 9.19855 50.5675 12.1552ZM65.6303 22.6384L91.2696 37.4365C95.4717 39.8636 98.0655 44.3501 98.0655 49.2093V78.8104C98.0655 83.6646 95.4717 88.1511 91.2696 90.5782L65.6303 105.381C61.4282 107.808 56.2455 107.808 52.0434 105.381L26.4041 90.5782C22.202 88.1511 19.6131 83.6646 19.6131 78.8104V49.2093C19.6131 44.3501 22.202 39.8636 26.4041 37.4365L52.0434 22.6384C56.2455 20.2113 61.4282 20.2113 65.6303 22.6384ZM44.1295 78.7172H73.5491V49.2975H44.1295V78.7172Z" fill="black"/>
</svg>
